<svg width="428" height="424" viewBox="0 0 428 424" fill="none" xmlns="http://www.w3.org/2000/svg">
<path fill-rule="evenodd" clip-rule="evenodd" d="M312.186 203.841H220.921V89.1169C220.945 86.1056 219.776 83.2071 217.669 81.0553C215.563 78.9035 212.69 77.6735 209.679 77.6342C203.49 77.6342 198.425 82.7911 198.425 89.1169V203.829H107.205C99.3095 203.829 92.8462 210.43 92.8462 218.475V322.552C92.8462 330.609 99.3095 337.187 107.205 337.187H312.175C320.07 337.187 326.522 330.609 326.522 322.552V218.475C326.522 210.43 320.07 203.841 312.175 203.841" fill="#FBBB17"/>
<path fill-rule="evenodd" clip-rule="evenodd" d="M350.187 112.036C353.854 115.073 352.651 116.506 350.336 119.783C342.726 130.567 329.456 146.393 328.47 155.767C327.347 166.356 330.636 181.93 318.856 192.759C313.962 192.484 256.274 192.759 256.274 192.759C267.745 177.85 281.738 151.172 303.901 145.201C317.607 141.522 327.187 125.33 335.954 112.323C340.48 105.596 343.93 106.868 350.187 112.036Z" fill="#A71E59"/>
<path fill-rule="evenodd" clip-rule="evenodd" d="M284.946 139.345C275.618 145.247 269.957 151.722 264.685 158.334C252.744 173.358 239.852 192.759 239.852 192.759H233.893C241.984 163.479 228.839 143.39 241.571 135.506C250.109 130.212 254.062 138.486 266.152 132.32C281.302 124.585 284.946 139.345 284.946 139.345ZM362.219 165.783C364.248 166.86 365.165 169.45 364.729 171.742C363.01 180.6 375.73 187.808 366.448 194.524C357.212 201.193 359.63 205.525 354.221 205.525C347.494 205.525 350.897 197.24 335.805 192.759C339.048 186.88 340.858 184.508 341.512 166.975C348.227 163.307 356.742 162.872 362.219 165.783ZM116.82 112.185C131.637 102.697 129.093 124.562 136.13 120.276C139.877 117.984 143.464 119.841 143.911 122.74C144.988 129.845 136.084 142.428 136.428 150.243C136.435 150.336 136.422 150.429 136.389 150.516C136.356 150.603 136.304 150.682 136.237 150.746C136.171 150.811 136.09 150.86 136.002 150.89C135.914 150.92 135.821 150.93 135.729 150.919C134.227 150.736 133.116 150.759 127.684 152.146C122.836 153.395 117.026 157.371 117.026 157.371C109.829 154.862 103.194 150.805 95.8371 146.702C90.4166 143.677 89.0758 141.339 89.0185 136.847C88.9612 131.403 93.1899 130.315 91.5397 126.739C89.2707 121.8 86.9902 115.99 89.5915 111.211C91.024 108.851 94.0035 106.261 96.9258 106.375C107.01 106.146 108.466 117.526 116.82 112.185ZM77.788 132.332C78.4641 133.707 78.785 134.406 77.9713 135.93C75.2783 140.949 77.4556 146.347 81.0311 151.343C86.9443 159.617 103.962 164.373 111.72 166.906L109.589 173.724C92.0554 169.095 81.0884 170.619 67.8982 173.908C67.8982 173.908 60.5181 177.151 55.9113 172.899C51.2815 168.648 53.4703 163.319 55.9113 161.164C55.9113 161.164 45.5516 154.598 50.1814 144.937C53.8027 137.374 60.816 138.463 60.816 138.463C60.816 138.463 59.1773 130.131 66.6262 126.292C71.1298 123.977 75.0605 126.854 75.0605 126.854C76.2409 129.524 77.1004 130.899 77.788 132.332ZM106.896 185.184V192.77C90.3937 192.209 82.9792 198.099 78.7735 211.118C74.1896 228.491 46.3767 221.179 55.7394 197.767C62.9017 181.265 88.8581 179.477 106.884 185.173" fill="#BBD43A"/>
<path fill-rule="evenodd" clip-rule="evenodd" d="M186.461 157.176C180.181 156.856 173.729 158.437 169.203 161.818C155.852 153.292 145.939 155.457 146.982 153.876C152.655 145.281 170.44 137.97 186.553 145.614C186.553 145.614 186.747 154.529 186.461 157.176ZM160.298 167.891C159.475 168.734 158.665 169.59 157.869 170.458C149.87 179.259 149.125 191.911 149.125 191.911H118.115C117.359 187.579 117.347 182.64 118.103 179.259C120.693 167.57 128.337 161.806 140.851 161.818C147.727 161.818 154.786 163.663 160.218 166.906C160.562 167.112 160.573 167.605 160.298 167.891ZM186.621 192.759H160.493C161.227 178.549 169.936 170.16 176.594 168.075C178.943 167.341 182.943 166.688 186.621 166.711V192.759Z" fill="#F05C2C"/>
<path d="M213.701 415.583C326.959 415.583 418.773 324.436 418.773 212C418.773 99.5643 326.959 8.41718 213.701 8.41718C100.442 8.41718 8.6283 99.5643 8.6283 212C8.6283 324.436 100.442 415.583 213.701 415.583Z" stroke="#229E6B" stroke-width="16.8344"/>
</svg>
